<svg width="25" height="12" viewBox="0 0 25 12" fill="none" xmlns="http://www.w3.org/2000/svg">
<path d="M6.94488 7.48507L5.77998 3.94957C5.71073 3.76377 5.63653 3.54612 5.55738 3.29662C5.48319 3.04711 5.41146 2.77638 5.34221 2.48441C5.27296 2.78169 5.19876 3.05773 5.11962 3.31254C5.04542 3.56204 4.9737 3.77969 4.90445 3.96549L3.74697 7.48507H6.94488ZM10.6844 11.8726H8.95563C8.76271 11.8726 8.60442 11.8248 8.48076 11.7293C8.36205 11.6284 8.27301 11.501 8.21365 11.347L7.48652 9.14134H3.19791L2.47077 11.347C2.42131 11.4798 2.33474 11.6019 2.21108 11.7133C2.08742 11.8195 1.93161 11.8726 1.74364 11.8726H0L4.20699 0.318513H6.48485L10.6844 11.8726Z" fill="white"/>
<path d="M15.9659 5.79695C15.773 5.55806 15.5627 5.39084 15.3352 5.29529C15.1126 5.19973 14.8752 5.15196 14.6229 5.15196C14.3756 5.15196 14.1505 5.20239 13.9477 5.30325C13.7449 5.40411 13.5693 5.56337 13.4209 5.78102C13.2775 5.99336 13.1662 6.26676 13.087 6.60119C13.0079 6.93563 12.9683 7.33378 12.9683 7.79562C12.9683 8.25216 13.0005 8.63968 13.0648 8.95819C13.1291 9.27671 13.2206 9.53417 13.3393 9.73059C13.463 9.92701 13.6114 10.0703 13.7845 10.1606C13.9576 10.2455 14.1505 10.288 14.3632 10.288C14.7243 10.288 15.0261 10.211 15.2684 10.0571C15.5158 9.90312 15.7482 9.68547 15.9659 9.40411V5.79695ZM18.0137 0V11.8726H16.7524C16.4902 11.8726 16.322 11.7452 16.2478 11.4904L16.0772 10.7737C15.9238 10.9542 15.7606 11.1188 15.5875 11.2674C15.4193 11.4161 15.2363 11.5461 15.0384 11.6576C14.8406 11.7638 14.6279 11.8461 14.4003 11.9044C14.1728 11.9628 13.9255 11.992 13.6583 11.992C13.2478 11.992 12.8719 11.8991 12.5305 11.7133C12.1892 11.5275 11.8925 11.2568 11.6402 10.9011C11.3929 10.5401 11.1999 10.0995 11.0614 9.5793C10.9229 9.05906 10.8537 8.4645 10.8537 7.79562C10.8537 7.18514 10.9304 6.61712 11.0837 6.09157C11.242 5.56603 11.4646 5.11214 11.7515 4.72993C12.0384 4.34771 12.3846 4.04778 12.7902 3.83013C13.1959 3.61248 13.646 3.50365 14.1406 3.50365C14.5561 3.50365 14.9049 3.57001 15.1868 3.70272C15.4737 3.83543 15.7334 4.01593 15.9659 4.24419V0H18.0137Z" fill="white"/>
<path d="M24.4732 5.35103C24.4188 5.44127 24.3619 5.50763 24.3025 5.5501C24.2481 5.58726 24.1715 5.60584 24.0725 5.60584C23.9736 5.60584 23.8722 5.5793 23.7683 5.52621C23.6644 5.47312 23.5482 5.41739 23.4196 5.35899C23.291 5.29529 23.1426 5.23689 22.9744 5.18381C22.8112 5.13072 22.6207 5.10418 22.4031 5.10418C22.0717 5.10418 21.8145 5.1785 21.6314 5.32714C21.4484 5.47047 21.3569 5.66158 21.3569 5.90046C21.3569 6.06503 21.4088 6.20305 21.5127 6.31453C21.6166 6.42601 21.7526 6.52422 21.9208 6.60916C22.0939 6.68879 22.2893 6.76576 22.507 6.84008C22.7246 6.90909 22.9472 6.98606 23.1747 7.071C23.4072 7.15594 23.6323 7.25415 23.8499 7.36563C24.0676 7.47711 24.2605 7.61778 24.4287 7.78766C24.6018 7.95222 24.7403 8.15395 24.8442 8.39283C24.9481 8.62641 25 8.91042 25 9.24486C25 9.643 24.9307 10.0119 24.7922 10.3517C24.6587 10.6861 24.4608 10.9754 24.1987 11.2196C23.9365 11.4638 23.61 11.6549 23.2193 11.793C22.8285 11.931 22.3784 12 21.8689 12C21.6067 12 21.347 11.9735 21.0898 11.9204C20.8326 11.8726 20.5877 11.8036 20.3552 11.7133C20.1228 11.6178 19.9051 11.509 19.7023 11.3869C19.4995 11.2648 19.3239 11.132 19.1755 10.9887L19.6504 10.1685C19.7048 10.073 19.7716 9.99867 19.8507 9.94559C19.9348 9.8925 20.0411 9.86596 20.1698 9.86596C20.2934 9.86596 20.4072 9.90047 20.5111 9.96948C20.6149 10.0332 20.7312 10.1048 20.8598 10.1845C20.9884 10.2588 21.1393 10.3305 21.3124 10.3995C21.4905 10.4632 21.7106 10.495 21.9727 10.495C22.1706 10.495 22.3413 10.4711 22.4847 10.4234C22.6282 10.3756 22.7444 10.3119 22.8334 10.2322C22.9225 10.1473 22.9868 10.0544 23.0264 9.95355C23.0709 9.84738 23.0931 9.73855 23.0931 9.62707C23.0931 9.44658 23.0387 9.3006 22.9299 9.18912C22.826 9.07233 22.6875 8.97147 22.5144 8.88653C22.3462 8.80159 22.1508 8.72462 21.9282 8.65561C21.7056 8.5866 21.4781 8.50962 21.2456 8.42468C21.0181 8.33975 20.793 8.23888 20.5704 8.1221C20.3528 8.00531 20.1574 7.85932 19.9843 7.68414C19.8161 7.50365 19.6776 7.28334 19.5688 7.02322C19.4649 6.76311 19.4129 6.44725 19.4129 6.07565C19.4129 5.7359 19.4748 5.41473 19.5984 5.11214C19.7221 4.80425 19.9076 4.53351 20.1549 4.29993C20.4022 4.06636 20.7089 3.88056 21.075 3.74253C21.4459 3.60451 21.8738 3.5355 22.3586 3.5355C22.9027 3.5355 23.3973 3.63105 23.8425 3.82216C24.2877 4.01327 24.6537 4.26277 24.9406 4.57067L24.4732 5.35103Z" fill="white"/>
</svg>
