<svg width="25" height="25" viewBox="0 0 25 25" fill="none" xmlns="http://www.w3.org/2000/svg">
<path d="M19.0105 13.2813V11.7188H22.9167V13.2813H19.0105ZM20.3125 20.8334L17.1615 18.4897L18.099 17.2397L21.25 19.5834L20.3125 20.8334ZM18.1771 7.73446L17.2396 6.48446L20.3125 4.16675L21.25 5.41675L18.1771 7.73446ZM5.46879 19.7917V15.6251H3.64587C3.21185 15.6251 2.84292 15.4732 2.5391 15.1694C2.23528 14.8655 2.08337 14.4966 2.08337 14.0626V10.9376C2.08337 10.5036 2.23528 10.1346 2.5391 9.83081C2.84292 9.52699 3.21185 9.37508 3.64587 9.37508H8.33337L13.5417 6.25008V18.7501L8.33337 15.6251H7.03129V19.7917H5.46879ZM14.5834 15.9897V9.0105C15.0521 9.42716 15.4297 9.93498 15.7162 10.5339C16.0026 11.1329 16.1459 11.7883 16.1459 12.5001C16.1459 13.2119 16.0026 13.8673 15.7162 14.4662C15.4297 15.0652 15.0521 15.573 14.5834 15.9897ZM3.64587 10.9376V14.0626H8.75004L11.9792 15.9897V9.0105L8.75004 10.9376H3.64587Z" fill="white"/>
</svg>
