<svg width="29" height="25" viewBox="0 0 29 25" fill="none" xmlns="http://www.w3.org/2000/svg">
<path d="M12.6595 21.5103H5.28701C4.81705 21.5103 4.40584 21.3541 4.05336 21.0416C3.70089 20.7291 3.52466 20.3645 3.52466 19.9478V4.79159C3.52466 4.37492 3.67642 4.01033 3.97993 3.69783C4.28345 3.38533 4.54291 3.22908 4.75831 3.22908H10.6916C10.8286 2.62145 11.1664 2.12231 11.7049 1.73169C12.2434 1.34106 12.8651 1.14575 13.5701 1.14575C14.275 1.14575 14.8967 1.34106 15.4352 1.73169C15.9737 2.12231 16.3115 2.62145 16.4486 3.22908H22.3819C22.8518 3.22908 23.263 3.38533 23.6155 3.69783C23.968 4.01033 24.1442 4.37492 24.1442 4.79159V10.078H22.3819V4.79159H19.2684V8.177H8.40051V4.79159H5.28701V19.9478H12.6595V21.5103ZM18.2109 20.8593L13.5113 16.6926L14.7744 15.5728L18.2109 18.6197L25.231 12.3958L26.494 13.5155L18.2109 20.8593ZM14.0988 4.68742C14.4317 4.68742 14.7107 4.58759 14.9359 4.38794C15.1611 4.18829 15.2737 3.94089 15.2737 3.64575C15.2737 3.35061 15.1611 3.10322 14.9359 2.90356C14.7107 2.70391 14.4317 2.60409 14.0988 2.60409C13.7659 2.60409 13.4869 2.70391 13.2617 2.90356C13.0365 3.10322 12.9239 3.35061 12.9239 3.64575C12.9239 3.94089 13.0365 4.18829 13.2617 4.38794C13.4869 4.58759 13.7659 4.68742 14.0988 4.68742Z" fill="white"/>
</svg>
