<svg width="25" height="17" viewBox="0 0 25 17" fill="none" xmlns="http://www.w3.org/2000/svg">
<path d="M0.989624 16.8333V14.3853C0.989624 13.7777 1.14587 13.2265 1.45837 12.7317C1.77087 12.2369 2.2049 11.868 2.76046 11.6249C4.02782 11.0694 5.16931 10.6701 6.18494 10.427C7.20056 10.1839 8.24657 10.0624 9.32296 10.0624C10.3993 10.0624 11.441 10.1839 12.448 10.427C13.4549 10.6701 14.5921 11.0694 15.8594 11.6249C16.415 11.868 16.8533 12.2369 17.1745 12.7317C17.4957 13.2265 17.6563 13.7777 17.6563 14.3853V16.8333H0.989624ZM19.2188 16.8333V14.3853C19.2188 13.2916 18.941 12.3931 18.3855 11.69C17.8299 10.9869 17.1007 10.4183 16.198 9.98429C17.3959 10.1232 18.5243 10.3272 19.5834 10.5963C20.6424 10.8654 21.5018 11.1735 22.1615 11.5208C22.7344 11.8506 23.1858 12.2586 23.5157 12.7447C23.8455 13.2308 24.0105 13.7777 24.0105 14.3853V16.8333H19.2188ZM9.32296 8.47388C8.17712 8.47388 7.23962 8.10929 6.51046 7.38013C5.78129 6.65096 5.41671 5.71346 5.41671 4.56763C5.41671 3.42179 5.78129 2.48429 6.51046 1.75513C7.23962 1.02596 8.17712 0.661377 9.32296 0.661377C10.4688 0.661377 11.4063 1.02596 12.1355 1.75513C12.8646 2.48429 13.2292 3.42179 13.2292 4.56763C13.2292 5.71346 12.8646 6.65096 12.1355 7.38013C11.4063 8.10929 10.4688 8.47388 9.32296 8.47388ZM14.7917 8.47388C14.6007 8.47388 14.3881 8.46086 14.1537 8.43481C13.9193 8.40877 13.7066 8.36103 13.5157 8.29159C13.9323 7.85756 14.2492 7.3237 14.4662 6.69002C14.6832 6.05634 14.7917 5.34888 14.7917 4.56763C14.7917 3.78638 14.6832 3.09627 14.4662 2.49731C14.2492 1.89836 13.9323 1.34714 13.5157 0.843669C13.7066 0.791585 13.9193 0.748183 14.1537 0.71346C14.3881 0.678738 14.6007 0.661377 14.7917 0.661377C15.9375 0.661377 16.875 1.02596 17.6042 1.75513C18.3334 2.48429 18.698 3.42179 18.698 4.56763C18.698 5.71346 18.3334 6.65096 17.6042 7.38013C16.875 8.10929 15.9375 8.47388 14.7917 8.47388ZM2.55212 15.2708H16.0938V14.3853C16.0938 14.1076 16.0113 13.8385 15.8464 13.578C15.6815 13.3176 15.4775 13.1353 15.2344 13.0312C13.9844 12.4756 12.9341 12.1023 12.0834 11.9114C11.2327 11.7204 10.3125 11.6249 9.32296 11.6249C8.33337 11.6249 7.40889 11.7204 6.54952 11.9114C5.69015 12.1023 4.63546 12.4756 3.38546 13.0312C3.1424 13.1353 2.94275 13.3176 2.7865 13.578C2.63025 13.8385 2.55212 14.1076 2.55212 14.3853V15.2708ZM9.32296 6.91138C10 6.91138 10.5599 6.69002 11.0026 6.24731C11.4454 5.80461 11.6667 5.24471 11.6667 4.56763C11.6667 3.89054 11.4454 3.33065 11.0026 2.88794C10.5599 2.44523 10 2.22388 9.32296 2.22388C8.64587 2.22388 8.08598 2.44523 7.64327 2.88794C7.20056 3.33065 6.97921 3.89054 6.97921 4.56763C6.97921 5.24471 7.20056 5.80461 7.64327 6.24731C8.08598 6.69002 8.64587 6.91138 9.32296 6.91138Z" fill="white"/>
</svg>
