<svg width="25" height="25" viewBox="0 0 25 25" fill="none" xmlns="http://www.w3.org/2000/svg">
<path d="M12.5 2.08325C6.75004 2.08325 2.08337 6.74992 2.08337 12.4999C2.08337 18.2499 6.75004 22.9166 12.5 22.9166C18.25 22.9166 22.9167 18.2499 22.9167 12.4999C22.9167 6.74992 18.25 2.08325 12.5 2.08325ZM12.5 20.8333C7.90629 20.8333 4.16671 17.0937 4.16671 12.4999C4.16671 7.90617 7.90629 4.16659 12.5 4.16659C17.0938 4.16659 20.8334 7.90617 20.8334 12.4999C20.8334 17.0937 17.0938 20.8333 12.5 20.8333ZM13.4271 11.5624C11.573 10.9478 10.6771 10.5624 10.6771 9.58325C10.6771 8.52075 11.8334 8.13534 12.5625 8.13534C13.9271 8.13534 14.4271 9.16659 14.5417 9.53117L16.1875 8.83325C16.0313 8.37492 15.3334 6.84367 13.4167 6.51034V5.20825H11.5938V6.52075C8.88546 7.10409 8.86462 9.4895 8.86462 9.60409C8.86462 11.9687 11.2084 12.6353 12.3542 13.052C14 13.6353 14.7292 14.1666 14.7292 15.1666C14.7292 16.3437 13.6355 16.8437 12.6667 16.8437C10.7709 16.8437 10.2292 14.8958 10.1667 14.6666L8.43754 15.3645C9.09379 17.6458 10.8125 18.2603 11.5834 18.4478V19.7916H13.4063V18.4999C13.948 18.4062 16.5521 17.8853 16.5521 15.1458C16.5625 13.6978 15.9271 12.427 13.4271 11.5624Z" fill="white"/>
</svg>
