<svg width="25" height="25" viewBox="0 0 25 25" fill="none" xmlns="http://www.w3.org/2000/svg">
<path d="M10.5 9.49684C9.95 9.49684 9.5 10.0593 9.5 10.7468V13.8719C9.5 14.2172 9.27625 14.4969 9 14.4969C8.72375 14.4969 8.5 14.2172 8.5 13.8719V10.8816C8.5 10.2023 8.6475 9.53512 8.92781 8.95231L11.3575 3.89018C11.6416 3.29799 11.4884 2.53041 11.0147 2.17494C10.5631 1.83627 9.99219 2.00697 9.69281 2.53471C9.68656 2.54369 9.67344 2.54291 9.66813 2.55346L6.00375 9.42457C5.67375 10.0433 5.5 10.7625 5.5 11.5039V14.6379L2.68375 15.8113C2.48462 15.8941 2.3114 16.0532 2.18867 16.266C2.06594 16.4788 1.99993 16.7345 2 16.9969V20.7469C2 21.1695 2.26625 21.9969 3 21.9969C3.08406 21.9969 3.16906 21.9836 3.25188 21.9566L8.85156 20.1355C10.4113 19.5781 11.5 17.7738 11.5 15.7469V10.7468C11.5 10.0593 11.05 9.49684 10.5 9.49684ZM21.3162 15.8144L18.5 14.641V11.507C18.5 10.7656 18.3262 10.0465 17.9962 9.4277L14.3319 2.55698C14.3263 2.54643 14.3134 2.5476 14.3072 2.53823C14.0078 2.01049 13.4369 1.83979 12.9853 2.17846C12.5116 2.53354 12.3584 3.30151 12.6425 3.8937L15.0722 8.95582C15.3525 9.53864 15.5 10.2058 15.5 10.8851V13.8754C15.5 14.2207 15.2763 14.5004 15 14.5004C14.7238 14.5004 14.5 14.2207 14.5 13.8754V10.7504C14.5 10.0629 14.05 9.50036 13.5 9.50036C12.95 9.50036 12.5 10.0629 12.5 10.7504V15.7504C12.5 17.7773 13.5888 19.5816 15.1484 20.1387L20.7481 21.9598C20.8312 21.9867 20.9163 22 21 22C21.7338 22 22 21.1727 22 20.75V17C22 16.4621 21.7247 15.9847 21.3162 15.8144Z" fill="white"/>
</svg>
