<svg width="27" height="28" viewBox="0 0 27 28" fill="none" xmlns="http://www.w3.org/2000/svg">
<g filter="url(#filter0_d_22_20)">
<path d="M10.7656 13.5676C11.0608 13.5676 11.3125 13.4635 11.5208 13.2551C11.7292 13.0468 11.8333 12.7951 11.8333 12.4999C11.8333 12.2048 11.7292 11.953 11.5208 11.7447C11.3125 11.5364 11.0608 11.4322 10.7656 11.4322C10.4705 11.4322 10.2187 11.5364 10.0104 11.7447C9.80208 11.953 9.69792 12.2048 9.69792 12.4999C9.69792 12.7951 9.80208 13.0468 10.0104 13.2551C10.2187 13.4635 10.4705 13.5676 10.7656 13.5676ZM14.724 13.5676C15.0191 13.5676 15.2708 13.4635 15.4792 13.2551C15.6875 13.0468 15.7917 12.7951 15.7917 12.4999C15.7917 12.2048 15.6875 11.953 15.4792 11.7447C15.2708 11.5364 15.0191 11.4322 14.724 11.4322C14.4288 11.4322 14.1771 11.5364 13.9687 11.7447C13.7604 11.953 13.6562 12.2048 13.6562 12.4999C13.6562 12.7951 13.7604 13.0468 13.9687 13.2551C14.1771 13.4635 14.4288 13.5676 14.724 13.5676ZM18.6823 13.5676C18.9774 13.5676 19.2292 13.4635 19.4375 13.2551C19.6458 13.0468 19.75 12.7951 19.75 12.4999C19.75 12.2048 19.6458 11.953 19.4375 11.7447C19.2292 11.5364 18.9774 11.4322 18.6823 11.4322C18.3872 11.4322 18.1354 11.5364 17.9271 11.7447C17.7187 11.953 17.6146 12.2048 17.6146 12.4999C17.6146 12.7951 17.7187 13.0468 17.9271 13.2551C18.1354 13.4635 18.3872 13.5676 18.6823 13.5676ZM4.125 12.4999L8.52604 6.27596C8.75174 5.96346 9.02083 5.70738 9.33333 5.50773C9.64583 5.30808 9.99306 5.20825 10.375 5.20825H21.3125C21.7465 5.20825 22.1155 5.36016 22.4193 5.66398C22.7231 5.9678 22.875 6.33672 22.875 6.77075V18.2291C22.875 18.6631 22.7231 19.032 22.4193 19.3359C22.1155 19.6397 21.7465 19.7916 21.3125 19.7916H10.375C9.99306 19.7916 9.64583 19.6918 9.33333 19.4921C9.02083 19.2925 8.75174 19.0364 8.52604 18.7239L4.125 12.4999ZM6.07812 12.4999L10.0885 18.2291H21.3125V6.77075H10.0885L6.07812 12.4999ZM21.3125 12.4999V6.77075V18.2291V12.4999Z" fill="white"/>
</g>
<defs>
<filter id="filter0_d_22_20" x="-3" y="0" width="33" height="33" filterUnits="userSpaceOnUse" color-interpolation-filters="sRGB">
<feFlood flood-opacity="0" result="BackgroundImageFix"/>
<feColorMatrix in="SourceAlpha" type="matrix" values="0 0 0 0 0 0 0 0 0 0 0 0 0 0 0 0 0 0 127 0" result="hardAlpha"/>
<feOffset dy="4"/>
<feGaussianBlur stdDeviation="2"/>
<feComposite in2="hardAlpha" operator="out"/>
<feColorMatrix type="matrix" values="0 0 0 0 0 0 0 0 0 0 0 0 0 0 0 0 0 0 0.25 0"/>
<feBlend mode="normal" in2="BackgroundImageFix" result="effect1_dropShadow_22_20"/>
<feBlend mode="normal" in="SourceGraphic" in2="effect1_dropShadow_22_20" result="shape"/>
</filter>
</defs>
</svg>
